<svg width="428" height="158" viewBox="0 0 428 158" fill="none" xmlns="http://www.w3.org/2000/svg">
<path d="M0 6.6875C0 2.9941 2.9941 0 6.6875 0H421.312C425.006 0 428 2.9941 428 6.6875V125.65C428 129.027 425.483 131.874 422.131 132.287L214.819 157.856C214.275 157.923 213.725 157.923 213.181 157.856L5.86891 132.287C2.51746 131.874 0 129.027 0 125.65V6.6875Z" fill="url(#paint0_linear_6023_105176)"/>
<rect width="428" height="23.375" transform="translate(1.52588e-05 13.375)" fill="url(#paint1_linear_6023_105176)"/>
<path fill-rule="evenodd" clip-rule="evenodd" d="M104 30.0625C106.761 30.0625 109 27.8239 109 25.0625C109 22.3011 106.761 20.0625 104 20.0625C101.239 20.0625 99 22.3011 99 25.0625C99 27.8239 101.239 30.0625 104 30.0625ZM124 30.0626C126.761 30.0626 129 27.824 129 25.0626C129 22.3011 126.761 20.0626 124 20.0626C121.239 20.0626 119 22.3011 119 25.0626C119 27.824 121.239 30.0626 124 30.0626ZM149 25.0626C149 27.824 146.761 30.0626 144 30.0626C141.239 30.0626 139 27.824 139 25.0626C139 22.3011 141.239 20.0626 144 20.0626C146.761 20.0626 149 22.3011 149 25.0626ZM164 30.0626C166.761 30.0626 169 27.824 169 25.0626C169 22.3011 166.761 20.0626 164 20.0626C161.239 20.0626 159 22.3011 159 25.0626C159 27.824 161.239 30.0626 164 30.0626ZM189 25.0626C189 27.824 186.761 30.0626 184 30.0626C181.239 30.0626 179 27.824 179 25.0626C179 22.3011 181.239 20.0626 184 20.0626C186.761 20.0626 189 22.3011 189 25.0626ZM204 30.0626C206.761 30.0626 209 27.824 209 25.0626C209 22.3011 206.761 20.0626 204 20.0626C201.239 20.0626 199 22.3011 199 25.0626C199 27.824 201.239 30.0626 204 30.0626ZM229 25.0626C229 27.824 226.761 30.0626 224 30.0626C221.239 30.0626 219 27.824 219 25.0626C219 22.3011 221.239 20.0626 224 20.0626C226.761 20.0626 229 22.3011 229 25.0626ZM244 30.0626C246.761 30.0626 249 27.824 249 25.0626C249 22.3011 246.761 20.0626 244 20.0626C241.239 20.0626 239 22.3011 239 25.0626C239 27.824 241.239 30.0626 244 30.0626ZM269 25.0626C269 27.824 266.761 30.0626 264 30.0626C261.239 30.0626 259 27.824 259 25.0626C259 22.3011 261.239 20.0626 264 20.0626C266.761 20.0626 269 22.3011 269 25.0626ZM284 30.0626C286.761 30.0626 289 27.824 289 25.0626C289 22.3011 286.761 20.0626 284 20.0626C281.239 20.0626 279 22.3011 279 25.0626C279 27.824 281.239 30.0626 284 30.0626ZM309 25.0626C309 27.824 306.761 30.0626 304 30.0626C301.239 30.0626 299 27.824 299 25.0626C299 22.3011 301.239 20.0626 304 20.0626C306.761 20.0626 309 22.3011 309 25.0626ZM324 30.0626C326.761 30.0626 329 27.824 329 25.0626C329 22.3011 326.761 20.0626 324 20.0626C321.239 20.0626 319 22.3011 319 25.0626C319 27.824 321.239 30.0626 324 30.0626Z" fill="url(#paint2_linear_6023_105176)"/>
<defs>
<linearGradient id="paint0_linear_6023_105176" x1="214" y1="-17.5955" x2="214" y2="157.957" gradientUnits="userSpaceOnUse">
<stop stop-color="#ED0000"/>
<stop offset="1" stop-color="#900300"/>
</linearGradient>
<linearGradient id="paint1_linear_6023_105176" x1="0" y1="11.6875" x2="428" y2="11.6875" gradientUnits="userSpaceOnUse">
<stop stop-color="#900300" stop-opacity="0"/>
<stop offset="0.5" stop-color="#900300"/>
<stop offset="1" stop-color="#900300" stop-opacity="0"/>
</linearGradient>
<linearGradient id="paint2_linear_6023_105176" x1="99" y1="20.0625" x2="318.567" y2="73.1855" gradientUnits="userSpaceOnUse">
<stop stop-color="#FFFDA0"/>
<stop offset="0.2" stop-color="#FFDE54"/>
<stop offset="0.4" stop-color="#FDDC6A"/>
<stop offset="0.6" stop-color="#FFA020"/>
<stop offset="0.8" stop-color="#F0C618"/>
<stop offset="1" stop-color="#FFDE54"/>
</linearGradient>
</defs>
</svg>
